# xmcd CD database file
#
# Track frame offsets:
#	150
#	14313
#	31822
#	44755
#	59225
#	73375
#	87334
#	99372
#	115374
#	127520
#	144226
#	162297
#	174100
#	193510
#	208163
#	224604
#	237438
#	252845
#	269571
#	284032
#
# Disc length: 3997 seconds
#
# Revision: 0
# Processed by: cddbd v1.5.1PL0 Copyright (c) Steve Scherf et al.
# Submitted via: CDex 1.50Beta7
#
DISCID=340f9b14
DTITLE=Sertanejo Requebra - Só bailão
DYEAR=2005
DGENRE=Country
TTITLE0=Daniel - Show de bola
TTITLE1=Lourenço and Tabaí - Mistura de ritmos
TTITLE2=Di Paulo and Paulinho - Lambada do amor
TTITLE3=Guilherme and Santiago - Vem sambar com a gente
TTITLE4=Cezar and Paulinho - Meu coração parou
TTITLE5=Felipe and Falcão - Tem que ser agora
TTITLE6=Roberta Miranda - Atração fatal
TTITLE7=Bruno and Marrone - Doce desejo
TTITLE8=Chanceller and Montenegro - Enguiço
TTITLE9=Zezé di Camargo and Luciano - Balançou
TTITLE10=Gian and Jauê - Bumbum
TTITLE11=Pedro Paulo and Paulo Vitor - Quebradeira
TTITLE12=Fran Junior - Bateu palma
TTITLE13=Daniel - Já tou no grude
TTITLE14=Rick and Renner - Rodeio e vaquejada
TTITLE15=Gilberto and Gilmar - Tá embolado
TTITLE16=João Pedro and Cristiano - Tum tum
TTITLE17=Roger and Robson - Gandaia
TTITLE18=Guilherme and Santiago - O som do povo
TTITLE19=Roberta Miranda - Meu dengo
EXTD=YEAR: 2005
EXTT0=
EXTT1=
EXTT2=
EXTT3=
EXTT4=
EXTT5=
EXTT6=
EXTT7=
EXTT8=
EXTT9=
EXTT10=
EXTT11=
EXTT12=
EXTT13=
EXTT14=
EXTT15=
EXTT16=
EXTT17=
EXTT18=
EXTT19=
PLAYORDER=
